<svg width="600" height="608" viewBox="0 0 600 608" fill="none" xmlns="http://www.w3.org/2000/svg">
<circle cx="282" cy="284" r="5" fill="black"/>
<circle cx="336" cy="284" r="5" fill="black"/>
<path d="M282.5 283.55C290.42 273.942 303.908 269.742 316.349 272.272C323.497 273.726 330.299 277.402 335.5 283.55" stroke="black" stroke-width="10"/>
<mask id="path-4-inside-1_4_38" fill="white">
<path d="M496 294.5C496 332.332 465.332 363 427.5 363C389.668 363 359 332.332 359 294.5C359 256.668 389.668 226 427.5 226C465.332 226 496 256.668 496 294.5ZM373.072 294.5C373.072 324.56 397.44 348.928 427.5 348.928C457.56 348.928 481.928 324.56 481.928 294.5C481.928 264.44 457.56 240.072 427.5 240.072C397.44 240.072 373.072 264.44 373.072 294.5Z"/>
</mask>
<path d="M496 294.5C496 332.332 465.332 363 427.5 363C389.668 363 359 332.332 359 294.5C359 256.668 389.668 226 427.5 226C465.332 226 496 256.668 496 294.5ZM373.072 294.5C373.072 324.56 397.44 348.928 427.5 348.928C457.56 348.928 481.928 324.56 481.928 294.5C481.928 264.44 457.56 240.072 427.5 240.072C397.44 240.072 373.072 264.44 373.072 294.5Z" fill="black" stroke="black" stroke-width="2" mask="url(#path-4-inside-1_4_38)"/>
<mask id="path-5-inside-2_4_38" fill="white">
<path d="M521.686 207.256C539.274 238.47 546.258 274.549 541.588 310.071C536.918 345.594 520.847 378.642 495.789 404.25C470.73 429.858 438.039 446.642 402.625 452.082C367.212 457.521 330.99 451.321 299.402 434.414L303.741 426.307C333.575 442.275 367.784 448.13 401.229 442.993C434.675 437.856 465.55 422.004 489.216 397.819C512.882 373.634 528.061 342.422 532.471 308.873C536.882 275.324 530.286 241.25 513.675 211.77L521.686 207.256Z"/>
</mask>
<path d="M521.686 207.256C539.274 238.47 546.258 274.549 541.588 310.071C536.918 345.594 520.847 378.642 495.789 404.25C470.73 429.858 438.039 446.642 402.625 452.082C367.212 457.521 330.99 451.321 299.402 434.414L303.741 426.307C333.575 442.275 367.784 448.13 401.229 442.993C434.675 437.856 465.55 422.004 489.216 397.819C512.882 373.634 528.061 342.422 532.471 308.873C536.882 275.324 530.286 241.25 513.675 211.77L521.686 207.256Z" fill="black" stroke="black" stroke-width="2" mask="url(#path-5-inside-2_4_38)"/>
<mask id="path-6-inside-3_4_38" fill="white">
<path d="M214.035 262.624C217.547 240.439 225.538 219.202 237.52 200.205L245.298 205.111C233.981 223.052 226.434 243.11 223.118 264.061L214.035 262.624Z"/>
</mask>
<path d="M214.035 262.624C217.547 240.439 225.538 219.202 237.52 200.205L245.298 205.111C233.981 223.052 226.434 243.11 223.118 264.061L214.035 262.624Z" fill="black" stroke="black" stroke-width="2" mask="url(#path-6-inside-3_4_38)"/>
<ellipse cx="427.5" cy="294.5" rx="13.5" ry="30.5" fill="black"/>
<path d="M382.5 226C414 226 483.9 224.7 539.5 197.5C569 183.068 562.5 159 528.5 155L494 150.5L500.5 175C493.833 181.5 460.9 194.8 382.5 196" stroke="black" stroke-width="7"/>
<path d="M383 226C352.5 226 282.362 224.2 226.762 197C197.262 182.568 203.762 158.5 237.762 154.5L272.262 150L265.762 174.5C272.429 181 305.1 194.8 383.5 196" stroke="black" stroke-width="7"/>
<path d="M272 151L302.5 23.5C305.1 14.0185 314.968 -1.30037 334.5 6.74475C336.255 7.46753 338.088 8.37889 340 9.5C363.2 23.1 378.167 30.3333 383.5 32.5" stroke="black" stroke-width="7"/>
<path d="M494 150.513L463.5 23.013C460.9 13.5315 451.032 -1.78736 431.5 6.25775C429.745 6.98053 427.912 7.89189 426 9.013C402.8 22.613 386.333 30.3463 381 32.513" stroke="black" stroke-width="7"/>
<rect x="496.249" y="337" width="160.641" height="55.1516" rx="27.5758" transform="rotate(50 496.249 337)" fill="black"/>
<rect x="472.506" y="330" width="39.3858" height="28.0744" transform="rotate(50 472.506 330)" fill="black"/>
<path d="M478 86C438.4 101.6 399 103 384 103V126.5C427.2 126.5 468.333 113.5 483.5 107C483.333 106.167 482 100.8 478 86Z" fill="black" stroke="black" stroke-width="7"/>
<path d="M289.5 86C329.1 101.6 368.5 103 383.5 103V126.5C340.3 126.5 299.167 113.5 284 107C284.167 106.167 285.5 100.8 289.5 86Z" fill="black" stroke="black" stroke-width="7"/>
<path d="M386.5 549.5C408 543 417.522 520.5 416.5 497.5C415.83 482.419 402.97 478.015 391 482.053M386.5 549.5L376.5 552.071M386.5 549.5C383.107 550.372 379.776 551.229 376.5 552.071M174.5 604C160 600.167 129.9 578.1 125.5 520.5C120 448.5 110 396.5 70 361M174.5 604L376.5 552.071M174.5 604C253.899 583.589 299.843 571.777 376.5 552.071M217 290C221 297.5 214.841 308.95 204.5 311.92M376.5 552.071C358.423 551.783 342.821 539.47 334.5 530.354M391 482.053C389.477 482.567 387.968 483.217 386.5 484C369.174 493.241 368.371 510.944 370.268 519.54C370.386 520.076 370.073 520.617 369.543 520.762L334.5 530.354M391 482.053L316.966 502.5M316.966 502.5C306.075 477.37 302.334 445.767 298 406C288.901 322.5 260 293 232 270.5C221.973 262.443 214.634 260 204.5 262.967M316.966 502.5C320.591 510.863 325.007 518.509 330.5 525.5C331.533 526.921 332.878 528.577 334.5 530.354M204.5 311.92C202.619 312.461 200.463 312.685 198 312.5C178 311 179 284 192.5 270.5C196.046 266.954 200.264 264.208 204.5 262.967M204.5 311.92L24.7254 375.92C24.5772 375.973 24.4159 375.99 24.2602 375.968C5.03999 373.271 -1.88299 344.241 9.32861 331.197C9.44022 331.067 9.58503 330.97 9.7467 330.914L204.5 262.967" stroke="black" stroke-width="7"/>
</svg>
